<svg version="1" xmlns="http://www.w3.org/2000/svg" viewBox="0 0 330.1 285.4">
	<path fill-rule="evenodd" clip-rule="evenodd" fill="#FFF" stroke="#FFF" stroke-width="10" stroke-miterlimit="10" d="M267.2 10v21l-9.6-5.6-10.1-4.8-10.4-3.9-10.7-3-10.9-2.1-11.1-1.2-11.1-.4-11.1.7-11 1.6-2 .5-1.7-.4-11-1.6-11.2-.8-11.1.2-11.1 1.2-10.9 2.1-10.7 3-10.4 3.9L81 25.2l-9.6 5.6-9.1 6.4-8.6 7.1-7.9 7.8-7.3 8.4-6.5 9-5.7 9.5-4.9 10-4.1 10.4-3.2 10.7-2.3 10.9-1.4 11-.4 11.2.5 11.1 1.4 11 2.4 10.9 3.3 10.6 4.1 10.3 5 9.9 5.8 9.5 6.6 9 7.3 8.4 8 7.7 8.6 7.1 9.2 6.3 9.7 5.5 10.1 4.7 10.5 3.8 10.7 2.9 10.9 2 11.1 1.1 11.1.2 11.1-.8 11-1.7.8-.2 1.9.4 11 1.6 11.1.7 11.1-.3 11.1-1.2 10.9-2.1 10.7-3 10.4-3.9 10.1-4.8 9.6-5.6v21H320V10h-52.8zm7.8 141.2l-1.4 8.4-2.3 8.2-3.1 8-4 7.6-4.8 7.2-5.6 6.7-6.3 6-1.2.9-35-20.8-4.8 7.2-5.6 6.7-6.3 6-6.9 5.3-7.4 4.5-7.9 3.7-3.2 1.1-3.3-1.1-7.9-3.7-7.4-4.5-6.9-5.3-6.3-6-5.6-6.7-4.8-7.2-4-7.7-3.2-8.1-2.3-8.4-1.3-8.6-.4-8.7.5-8.7 1.5-8.6 2.4-8.4 3.3-8 4.2-7.6 5-7.1 5.7-6.6 6.4-5.9 7-5.2 7.5-4.4 7.9-3.5 1.9-.6 4.6 1.6 7.8 3.8 7.4 4.6 6.8 5.4 6.2 6.1 5.5 6.7 29.5-21.4 5 3.1 6.8 5.4 6.2 6.1 5.5 6.7 4.5 7 3.8 7.4 3 7.8 2.2 8.1 1.3 8.2.4 8.3-.6 9z"/>
	<g fill-rule="evenodd" clip-rule="evenodd">
		<path fill="#E60000" d="M264.2 183.5l4-7.6 3.1-8 2.3-8.2 1.4-8.4.5-8.5-.4-8.3-1.3-8.2-2.2-8.1-3-7.8-3.8-7.4-4.5-7-5.5-6.7-6.2-6.1-6.8-5.4-7.4-4.6-7.8-3.8-8.2-2.9-8.5-2-8.6-1.1-8.7-.1-8.7.8-8.5 1.7-8.3 2.6-7.9 3.5-7.5 4.4-7 5.2-6.4 5.9-5.7 6.6-5 7.1-4.2 7.6-3.3 8-2.4 8.4-1.5 8.6-.5 8.7.4 8.7 1.3 8.6 2.3 8.4 3.2 8.1 4 7.7 4.8 7.2 5.6 6.7 6.3 6 6.9 5.3 7.4 4.5 7.9 3.7 8.2 2.8 8.5 1.9 8.6.9h8.7l8.6-.9 8.5-1.9 8.2-2.8 7.9-3.7 7.4-4.5 6.9-5.3 6.3-6 5.6-6.7 5-7.6m3-152.5V10h52.9v265.4h-52.9v-21l-9.6 5.6-10.1 4.8-10.4 3.9-10.7 3-10.9 2.1-11.1 1.2-11.1.3-11.1-.7-11-1.6-10.9-2.5-10.6-3.4-10.3-4.3-9.9-5.1-9.4-5.9-8.9-6.7-8.3-7.4-7.6-8.1-6.9-8.7-6.2-9.3-5.4-9.8-4.5-10.2-3.7-10.5-2.8-10.8-1.9-11-.9-11v-11.1l1-11.2 1.9-11 2.8-10.8 3.7-10.5 4.5-10.2 5.4-9.8 6.2-9.3 6.9-8.7 7.6-8.1 8.3-7.4 8.9-6.7 9.4-5.9 9.9-5.1 10.3-4.3 10.6-3.4 10.9-2.5 11-1.6 11.1-.7 11.1.3 11.1 1.2 10.9 2.1 10.7 3 10.4 3.9 10.1 4.8 9.5 5.7"/>
		<path d="M256.8 210.5l-6.1 9.3-6.8 8.8-7.6 8.2-8.2 7.5-8.8 6.8-9.4 6-9.8 5.3-10.2 4.3-10.6 3.6-10.8 2.6-11 1.7-11.1.8-11.2-.2-11-1.1-11-2-10.7-2.9-10.5-3.9-10.1-4.6-9.7-5.6-9.1-6.3-8.7-7-8-7.8-7.3-8.4-6.6-8.9-5.8-9.5-5-10-4.1-10.3-3.3-10.6-2.3-10.9-1.5-11.1-.5-11.1.4-11.1 1.4-11.1 2.3-10.9 3.1-10.6 4.1-10.4 4.9-10 5.8-9.5 6.5-9 7.2-8.5 8-7.8 8.5-7.1 9.2-6.4 9.6-5.6 10.1-4.7 10.4-3.9 10.7-3 10.9-2.2 11.1-1.1 11.1-.3 11.2.7 11 1.6 10.8 2.6 10.6 3.4 10.3 4.3 9.8 5.2 9.4 5.9 8.9 6.8 8.3 7.4 7.6 8.1 6.9 8.8-42.8 31-5.5-6.7-6.1-6.1-6.8-5.4-7.4-4.7-7.8-3.8-8.2-2.9-8.5-2-8.6-1.1-8.7-.2-8.6.8-8.5 1.8-8.3 2.6-8 3.5-7.5 4.4-7 5.2-6.3 5.9-5.8 6.5-4.9 7.2-4.2 7.6-3.3 8-2.4 8.4-1.5 8.5-.5 8.7.4 8.7 1.3 8.6 2.3 8.4 3.1 8.1 4.1 7.7 4.8 7.2 5.6 6.6 6.3 6 6.9 5.3 7.4 4.5 7.9 3.7 8.2 2.8 8.5 1.9 8.7.9h8.6l8.7-.9 8.5-1.9 8.2-2.8 7.9-3.7 7.4-4.5 6.9-5.2 6.3-6.1 5.6-6.6 4.8-7.2 45.5 27"/>
	</g>
</svg>